<?xml version="1.0" encoding="UTF-8" ?>
<!DOCTYPE svg PUBLIC "-//W3C//DTD SVG 1.1//EN" "http://www.w3.org/Graphics/SVG/1.1/DTD/svg11.dtd">
<svg width="22pt" height="22pt" viewBox="0 0 22 22" version="1.1" xmlns="http://www.w3.org/2000/svg">
<path fill="#ffffff" d=" M 0.00 0.00 L 22.00 0.00 L 22.00 5.27 C 20.83 4.26 19.74 3.17 18.63 2.09 C 14.99 5.26 11.83 8.92 8.33 12.23 C 6.84 10.71 5.36 9.19 3.87 7.68 C 2.59 8.57 1.32 9.46 0.00 10.29 L 0.00 0.00 Z" />
<path fill="#36d9bd" d=" M 8.33 12.23 C 11.83 8.92 14.99 5.26 18.63 2.09 C 19.74 3.17 20.83 4.26 22.00 5.27 L 22.00 5.70 C 17.90 9.87 13.28 13.61 9.85 18.38 C 9.44 18.45 8.61 18.60 8.20 18.67 C 5.25 16.57 3.28 13.31 0.00 11.61 L 0.00 10.29 C 1.32 9.46 2.59 8.57 3.87 7.68 C 5.36 9.19 6.84 10.71 8.33 12.23 Z" />
<path fill="#ffffff" d=" M 9.85 18.38 C 13.28 13.61 17.90 9.87 22.00 5.70 L 22.00 22.00 L 0.00 22.00 L 0.00 11.61 C 3.28 13.31 5.25 16.57 8.20 18.67 C 8.61 18.60 9.44 18.45 9.85 18.38 Z" />
</svg>
