<?xml version="1.0"?>
<svg width="494.64" height="494.64" xmlns="http://www.w3.org/2000/svg" xmlns:svg="http://www.w3.org/2000/svg">
 <g>
  <title>Layer 1</title>
  <g id="svg_1">
   <g id="svg_2">
    <path id="svg_3" fill="#007fff" d="m491.985992,79.216003c-2.774994,-4.641006 -7.351013,-7.895004 -12.631012,-8.957001l-280.183975,-67.547003c-9.233994,-1.79 -18.343994,3.311 -21.540009,12.134l-106.797997,271.315011l35.653999,12.993011l101.210007,-257.977001l243.447006,62.122982c-15.20401,47.134003 -51.382996,145.511993 -86.063995,237.111984c-30.235992,79.921021 -47.63501,107.289001 -80.705017,112.878021c-0.039001,-0.039001 -0.074982,-0.076996 -0.074982,-0.13501c-67.586014,9.473999 -66.373001,-76.687988 -66.373001,-76.687988l-215.851017,-87.19101c-15.339,97.223999 59.367001,120.608002 59.367001,120.608002l158.033012,71.75c0.037994,0.019989 24.707993,11.770996 51.520996,10.562988c72.322998,-1.703003 97.738983,-54.217987 129.584991,-138.35199c46.007996,-121.593994 92.705017,-257.83802 93.164001,-259.28299c1.645996,-5.155014 0.996002,-10.715012 -1.76001,-15.346008z"/>
    <path id="svg_4" fill="#007fff" d="m364.272003,188.630005c1.645996,0.449997 3.350006,0.688995 5.03299,0.688995c8.324005,0 15.940002,-5.550003 18.274017,-13.970993c2.773987,-10.11499 -3.216003,-20.563995 -13.317017,-23.319992l-82.233002,-25.381012c-9.988983,-2.764992 -20.554993,3.177002 -23.311005,13.281998c-2.756989,10.113998 3.178009,20.563995 13.318024,23.330002l82.235992,25.371002z"/>
    <path id="svg_5" fill="#007fff" d="m235.783997,215.938995c-3.29599,9.962006 2.055008,20.690002 11.988998,24.014999l81.802017,29.23201c1.985992,0.66098 3.937988,0.958008 5.906982,0.968994c7.979004,0.041992 15.453003,-4.990997 18.117004,-12.959991c3.304993,-9.935013 -2.036011,-20.679016 -12.01001,-24.002014l-81.770996,-29.212997c-9.992996,-3.306992 -20.69899,2.042999 -24.033997,11.959z"/>
    <path id="svg_6" fill="#007fff" d="m228.587006,283.184998c-9.951996,-3.329987 -20.697998,2.104004 -23.951996,12.096008c-3.272003,9.914001 2.182007,20.669983 12.134003,23.923004l81.972992,29.110992c1.975006,0.669006 3.942017,0.955994 5.936005,0.955994c7.960999,0 15.386993,-5.070007 18.01001,-13.03299c3.270996,-9.971008 -2.162994,-20.707001 -12.115021,-23.960999l-81.985992,-29.09201z"/>
    <path id="svg_7" fill="#007fff" d="m225.552002,104.516998c11.617004,0 21.042999,9.167 21.042999,20.459c0,11.300995 -9.425995,20.458008 -21.042999,20.458008c-11.626007,0 -21.052002,-9.158005 -21.052002,-20.458008c0.001007,-11.292 9.425995,-20.459 21.052002,-20.459z"/>
    <path id="svg_8" fill="#007fff" d="m195.783005,180.572006c11.626999,0 21.042999,9.158005 21.042999,20.449005c0,11.281998 -9.416,20.438995 -21.042999,20.438995c-11.626007,0 -21.052002,-9.156998 -21.052002,-20.438995c0,-11.290009 9.425995,-20.449005 21.052002,-20.449005z"/>
    <path id="svg_9" fill="#007fff" d="m164.033005,259.039001c11.626999,0 21.052002,9.167999 21.052002,20.479004c0,11.290009 -9.425003,20.437988 -21.052002,20.437988c-11.626007,0 -21.052002,-9.145996 -21.052002,-20.437988c0,-11.311005 9.425995,-20.479004 21.052002,-20.479004z"/>
   </g>
  </g>
  <g id="svg_10"/>
  <g id="svg_11"/>
  <g id="svg_12"/>
  <g id="svg_13"/>
  <g id="svg_14"/>
  <g id="svg_15"/>
  <g id="svg_16"/>
  <g id="svg_17"/>
  <g id="svg_18"/>
  <g id="svg_19"/>
  <g id="svg_20"/>
  <g id="svg_21"/>
  <g id="svg_22"/>
  <g id="svg_23"/>
  <g id="svg_24"/>
 </g>
</svg>