<?xml version="1.0" encoding="UTF-8" ?>
<!DOCTYPE svg PUBLIC "-//W3C//DTD SVG 1.1//EN" "http://www.w3.org/Graphics/SVG/1.1/DTD/svg11.dtd">
<svg width="22pt" height="22pt" viewBox="0 0 22 22" version="1.1" xmlns="http://www.w3.org/2000/svg">
<path fill="#ffffff" d=" M 0.00 0.00 L 2.73 0.00 C 2.91 1.44 1.47 2.97 0.00 2.62 L 0.00 0.00 Z" />
<path fill="#36d9bd" d=" M 2.73 0.00 L 3.37 0.00 C 5.97 2.42 8.39 5.02 10.89 7.53 C 13.40 4.92 15.93 2.32 18.71 0.00 L 19.50 0.00 C 19.01 1.60 20.76 2.62 22.00 3.11 L 22.00 5.75 L 21.88 3.47 C 19.31 5.91 16.84 8.45 14.36 10.99 C 16.77 13.61 19.33 16.09 22.00 18.45 L 22.00 18.94 C 21.76 19.00 21.28 19.11 21.04 19.17 C 20.03 19.87 19.49 20.81 19.43 22.00 L 18.48 22.00 C 15.84 19.60 13.39 17.01 10.90 14.46 C 8.39 17.01 5.94 19.63 3.25 22.00 L 2.69 22.00 C 2.85 20.53 1.46 19.14 0.00 19.22 L 0.00 18.60 C 2.39 15.97 4.97 13.54 7.46 11.01 C 4.94 8.47 2.34 5.98 0.00 3.26 L 0.00 2.62 C 1.47 2.97 2.91 1.44 2.73 0.00 Z" />
<path fill="#ffffff" d=" M 3.37 0.00 L 18.71 0.00 C 15.93 2.32 13.40 4.92 10.89 7.53 C 8.39 5.02 5.97 2.42 3.37 0.00 Z" />
<path fill="#ffffff" d=" M 19.50 0.00 L 22.00 0.00 L 22.00 3.11 C 20.76 2.62 19.01 1.60 19.50 0.00 Z" />
<path fill="#ffffff" d=" M 0.00 3.26 C 2.34 5.98 4.94 8.47 7.46 11.01 C 4.97 13.54 2.39 15.97 0.00 18.60 L 0.00 3.26 Z" />
<path fill="#ffffff" d=" M 21.88 3.47 L 22.00 5.75 L 22.00 18.45 C 19.33 16.09 16.77 13.61 14.36 10.99 C 16.84 8.45 19.31 5.91 21.88 3.47 Z" />
<path fill="#ffffff" d=" M 3.25 22.00 C 5.94 19.63 8.39 17.01 10.90 14.46 C 13.39 17.01 15.84 19.60 18.48 22.00 L 3.25 22.00 Z" />
<path fill="#ffffff" d=" M 0.00 19.22 C 1.46 19.14 2.85 20.53 2.69 22.00 L 0.00 22.00 L 0.00 19.22 Z" />
<path fill="#ffffff" d=" M 21.04 19.17 C 21.28 19.11 21.76 19.00 22.00 18.94 L 22.00 22.00 L 19.43 22.00 C 19.49 20.81 20.03 19.87 21.04 19.17 Z" />
</svg>
